<svg width="393" height="393" viewBox="0 0 393 393" fill="none" xmlns="http://www.w3.org/2000/svg">
<path fill-rule="evenodd" clip-rule="evenodd" d="M136 347C185.706 347 226 306.706 226 257H272V393H136V347Z" fill="url(#paint0_linear_5_6)"/>
<path fill-rule="evenodd" clip-rule="evenodd" d="M249 0C236.297 0 226 10.2975 226 23V257C226 306.706 185.706 347 136 347C86.2944 347 46 306.706 46 257C46 207.294 86.2944 167 136 167H181C187.1 167 192.95 164.577 197.263 160.263C201.577 155.95 204 150.1 204 144C204 137.9 201.577 132.05 197.263 127.737C192.95 123.423 187.1 121 181 121H136C60.8893 121 0 181.889 0 257C0 332.111 60.8893 393 136 393C211.111 393 272 332.111 272 257V23C272 10.2975 261.703 0 249 0Z" fill="url(#paint1_linear_5_6)"/>
<circle cx="351" cy="351" r="42" fill="url(#paint2_linear_5_6)"/>
<defs>
<linearGradient id="paint0_linear_5_6" x1="136" y1="257" x2="272" y2="393" gradientUnits="userSpaceOnUse">
<stop stop-color="#3600FF" stop-opacity="0.9"/>
<stop offset="1" stop-color="#00BDFF"/>
</linearGradient>
<linearGradient id="paint1_linear_5_6" x1="0" y1="0" x2="272" y2="393" gradientUnits="userSpaceOnUse">
<stop stop-color="#3600FF" stop-opacity="0.9"/>
<stop offset="0.651042" stop-color="#00BDFF"/>
</linearGradient>
<linearGradient id="paint2_linear_5_6" x1="351.646" y1="309" x2="351.646" y2="475.708" gradientUnits="userSpaceOnUse">
<stop stop-color="#00BDFF"/>
<stop offset="0.0001" stop-color="#00BDFF"/>
<stop offset="1" stop-color="#3600FF" stop-opacity="0.9"/>
</linearGradient>
</defs>
</svg>
